<svg xmlns="http://www.w3.org/2000/svg" style="display: none;">
  <symbol width="50" height="53" fill="none" id="cat-slim"><circle cx="25" cy="28" r="25" fill="#68B738"/><g clip-path="url(#clip0)"><path d="M35.2 0H35c-.32.19-.59.47-.74.82a8.03 8.03 0 00-.67 1.76.84.84 0 01-.76.69 3.77 3.77 0 00-2.69 1.95c-.37.66-.69 1.35-.95 2.06-.73 1.9-1.29 3.85-1.98 5.77-.32.87-.34.87-1.32.87-1.16 0-1.08-.18-1.1 1.1 0 .41.13.62.56.6.13 0 .33-.07.39.1.05.18-.13.26-.23.36a4.63 4.63 0 01-2.23 1.26c-.97.26-1.97.47-2.92.79-2.45.82-4.7 1.96-6.46 3.9a14.44 14.44 0 00-2.44 4.04c-1.89 4.46-2.8 9.15-3.51 13.88a97.06 97.06 0 00-.75 6.7C7.1 47.75 7 48.88 7 50h17.14c.03-.23-.01-.46-.12-.66a2.58 2.58 0 00-1.97-1.58c-.36-.08-.4-.2-.18-.48.36-.48.64-1.02.82-1.6.84-2.47 1.16-5.06 1.57-7.62.23-1.96.83-3.85 1.77-5.59a11.13 11.13 0 012.87-3.28c.43-.32.45-.32.52.23.05.36.06.74.09 1.11a48.2 48.2 0 01-.1 7.31c-.2 1.88-.22 3.78-.07 5.67.2 2.2.59 4.36 1.16 6.49h6.84a2.8 2.8 0 00-2.18-2.29c-.64-.1-1.3-.07-1.93.1-.31.08-.44 0-.46-.33-.22-2.73-.04-5.47.51-8.16a91.8 91.8 0 001.57-9.37c.14-1.27.54-2.5 1.18-3.6.6-1.1 1.14-2.23 1.74-3.33a3.03 3.03 0 00.22-2.67c-.14-.37-.27-.74-.44-1.1-.52-1-1.03-2-1.5-3-.26-.52-.2-.59.36-.6.84 0 .84 0 .86-.85v-.34c0-.35-.14-.55-.52-.51h-.78c-.36 0-.46-.15-.37-.52a3.22 3.22 0 012.64-2.28 11.3 11.3 0 013.4.22.51.51 0 00.65-.33 40 40 0 01.66-1.55.52.52 0 00-.05-.58c-1.65-2.1-3.43-4.05-5.87-5.3a.77.77 0 01-.45-.58 9.8 9.8 0 00-.65-2.14A1.8 1.8 0 0035.2 0z" fill="#000"/></g><defs><clipPath id="clip0"><path fill="#fff" transform="translate(7)" d="M0 0h36v50H0z"/></clipPath></defs>
  </symbol>
  <symbol width="67" height="50" fill="none" id="cat-pro"><circle cx="34.5" cy="25" r="25" fill="#68B738"/><g clip-path="url(#clip0)"><path d="M61.55 13.9a7.6 7.6 0 012.25-2.3c.5-.35.8-.35 1.1.3.4.95.75 1.95.45 3a1.15 1.15 0 00.2 1.05c.3.4.55.8.8 1.15a3.14 3.14 0 01.45 3.1c-.18.5-.22 1.03-.1 1.55.1.5.1 1 0 1.5a1.88 1.88 0 01-1.35 1.6 2.6 2.6 0 00-1.6 1 .53.53 0 01-.45.25c-.6.1-2.1-1.25-2.1-1.85v-.3c.05-1.8-.05-1.95-1.7-2.7a2.2 2.2 0 01-.9-.6c-.3-.4-.7-.35-1.15-.2-.45.15-.7.45-.65.95.15 1.21.2 2.43.15 3.65 0 .14.04.28.1.4 1.55 2.25 2.15 4.9 2.9 7.45.6 1.95 1.7 3 3.7 3.15.32.03.64.08.95.15a2.08 2.08 0 011.7 1.6c.35 1.05.15 1.3-.9 1.3h-3.25c-.42.02-.83-.12-1.15-.4a5.86 5.86 0 00-1.7-1 3.63 3.63 0 01-1.7-1.3 14.3 14.3 0 00-2-2.25c-1.4-1.45-2.9-2.85-4.2-4.35a5.69 5.69 0 01-1.6-3.8c0-.45-.1-.65-.6-.45a.96.96 0 01-.5.15c-1.4 0-2.1.85-2.6 2.1-.45 1.05-1.05 2.05-1.6 3.1A5.2 5.2 0 0044 33c0 1.2.3 1.6 1.4 2 .7.25 1.35.5 1.7 1.2.4.8.3 1-.55 1.05h-3.4a.94.94 0 01-.95-.55l-.9-1.5a3.02 3.02 0 01-.35-2.7c.22-.87.23-1.77.05-2.65a4.2 4.2 0 01.85-3.5c.3-.35.3-.5-.2-.6a25.03 25.03 0 01-5.95-2.1c-1.6-.6-1.9-.5-2.35 1.15-.4 1.4-.8 2.8-1.1 4.25-.35 1.6.05 3.1.55 4.6.2.6.8.55 1.25.7 1 .3 1.85.7 2.25 1.75.35.8.3.9-.55.9-.85 0-1.7-.05-2.6 0-.76.01-1.5-.23-2.1-.7-2.4-1.6-3.1-4.05-3.3-6.7-.1-1.65-1-2.95-2.05-4.2-.2-.25-.4-.35-.7-.15-1.07.6-2.2 1.1-3.35 1.5a13.35 13.35 0 00-6.1 4.4 5.31 5.31 0 00-1.1 2.55c-.15.9.1 1.3 1 1.55s1.35.75 1.45 1.7c.05.4-.1.6-.5.6h-4.05a.83.83 0 01-.65-.4 4.28 4.28 0 01-.95-2.75 25.3 25.3 0 01.45-5.15 3.15 3.15 0 011.7-2.4c2.95-1.4 4.5-4.05 5.9-6.8.3-.55.05-.65-.45-.6-1.4.2-2.73.75-3.85 1.6a35.3 35.3 0 00-4.15 3.55 8.34 8.34 0 01-5.15 2.45c-3.65.2-5.35-1.85-5.2-5.15.03-1.13.46-2.2 1.2-3.05a2.13 2.13 0 012.25-.75c.75.2.95.6.65 1.35-.15.3-.35.55-.5.85-.22.3-.38.64-.5 1-.55 1.5.2 2.55 1.75 2.7 1.65.15 3-.55 4.25-1.55 1.5-1.2 2.85-2.6 4-4.15a10.4 10.4 0 017.2-4.05c1.15-.15 2.15-.65 3.25-.95a20.7 20.7 0 016.35-.9 6.5 6.5 0 002.9-.55c2.45-1 5-1 7.55-.5 2 .4 4 .9 5.95 1.4a8.3 8.3 0 003.5-.1c2.2-.56 4.44-.9 6.7-1a9.08 9.08 0 014.3.85c1 .45 1 .45.75 1.4z" fill="#000"/></g><defs><clipPath id="clip0"><path fill="#fff" transform="translate(0 11)" d="M0 0h67v28H0z"/></clipPath></defs>
  </symbol>
  <symbol width="71" height="227" viewBox="0 0 71 227" fill="none" id="adventage-1">
  <path d="M40.3722 227V39.4C40.1855 39.5867 38.0389 40.1467 33.9322 41.08C30.0122 42.0133 25.5322 42.9467 20.4922 43.88C15.4522 44.8133 10.9722 45.6533 7.05219 46.4C3.13219 47.1467 1.07885 47.52 0.892188 47.52V24.84C4.06552 24.0933 7.70552 23.0667 11.8122 21.76C16.1055 20.4533 20.3989 18.8667 24.6922 17C29.1722 15.1333 33.3722 12.8 37.2922 9.99999C41.3989 7.19999 44.8522 3.93332 47.6522 0.199983H70.3322V227H40.3722Z" fill="#F2F2F2"/>
  </symbol>
  <symbol width="113" height="229" viewBox="0 0 113 229" fill="none" id="adventage-2">
  <path d="M0.624532 229V207.72L58.3045 117.84C62.5979 111.12 66.5179 104.867 70.0645 99.08C73.7979 93.2933 76.7845 87.2267 79.0245 80.88C81.4512 74.3467 82.6645 66.88 82.6645 58.48C82.6645 48.0267 80.9845 39.8133 77.6245 33.84C74.2645 27.8667 68.3845 24.88 59.9845 24.88C52.8912 24.88 47.3845 26.84 43.4645 30.76C39.5445 34.68 36.8379 39.8133 35.3445 46.16C33.8512 52.5067 33.1045 59.32 33.1045 66.6V74.16H3.14453V66.32C3.14453 52.6933 4.91787 41.0267 8.46453 31.32C12.1979 21.4267 18.0779 13.7733 26.1045 8.35999C34.3179 2.94666 45.1445 0.239991 58.5845 0.239991C76.8779 0.239991 90.5045 5.46666 99.4645 15.92C108.425 26.1867 112.905 40.4667 112.905 58.76C112.905 68.4667 111.691 76.96 109.265 84.24C107.025 91.52 104.038 98.3333 100.305 104.68C96.5712 111.027 92.4645 117.56 87.9845 124.28L35.9045 203.8H107.585V229H0.624532Z" fill="#F2F2F2"/>
  </symbol>
  <symbol width="112" height="232" viewBox="0 0 112 232" fill="none" id="adventage-3">
  <path d="M55.9213 231.52C43.6013 231.52 33.3346 229.187 25.1213 224.52C16.9079 219.853 10.7479 213.133 6.64125 204.36C2.53458 195.587 0.481251 185.227 0.481251 173.28V165.72H30.1613C30.1613 166.467 30.1613 167.307 30.1613 168.24C30.1613 168.987 30.1613 169.827 30.1613 170.76C30.3479 177.48 31.0946 183.547 32.4013 188.96C33.8946 194.373 36.4146 198.667 39.9613 201.84C43.6946 205.013 49.0146 206.6 55.9213 206.6C63.2013 206.6 68.7079 204.92 72.4413 201.56C76.1746 198.013 78.6946 193.067 80.0013 186.72C81.3079 180.373 81.9613 173.093 81.9613 164.88C81.9613 152.933 79.7213 143.227 75.2413 135.76C70.9479 128.107 63.2946 123.907 52.2813 123.16C51.7213 122.973 50.9746 122.88 50.0413 122.88C49.2946 122.88 48.6413 122.88 48.0813 122.88V92.92C48.6413 92.92 49.2946 92.92 50.0413 92.92C50.7879 92.92 51.4413 92.92 52.0013 92.92C62.6413 92.5467 70.2946 89.7467 74.9613 84.52C79.6279 79.2933 81.9613 70.6133 81.9613 58.48C81.9613 48.2133 80.1879 40 76.6413 33.84C73.2813 27.68 66.4679 24.6 56.2013 24.6C45.9346 24.6 39.1213 28.0533 35.7613 34.96C32.4013 41.68 30.5346 50.36 30.1613 61C30.1613 61.7467 30.1613 62.5867 30.1613 63.52C30.1613 64.2667 30.1613 65.0133 30.1613 65.76H0.481251V58.2C0.481251 46.0667 2.53458 35.7067 6.64125 27.12C10.7479 18.5333 16.9079 11.9067 25.1213 7.23998C33.5213 2.57332 43.8813 0.239991 56.2013 0.239991C68.7079 0.239991 79.0679 2.57332 87.2813 7.23998C95.4946 11.9067 101.655 18.6267 105.761 27.4C109.868 35.9867 111.921 46.3467 111.921 58.48C111.921 72.1067 108.935 83.0267 102.961 91.24C97.1746 99.4533 89.3346 105.053 79.4413 108.04C86.3479 110.093 92.1346 113.64 96.8013 118.68C101.655 123.72 105.388 130.16 108.001 138C110.615 145.653 111.921 154.613 111.921 164.88C111.921 178.32 110.055 190.08 106.321 200.16C102.588 210.053 96.6146 217.8 88.4013 223.4C80.1879 228.813 69.3613 231.52 55.9213 231.52Z" fill="#F2F2F2"/>
  </symbol>
  <symbol width="121" height="227" viewBox="0 0 121 227" fill="none" id="adventage-4">
  <path d="M66.3242 227V166.24H0.52422V134.88L59.6042 0.199983H94.8842V139.64H120.364V166.24H94.8842V227H66.3242ZM29.3642 139.64H66.3242V36.6L29.3642 139.64Z" fill="#F2F2F2"/>
  </symbol>
</svg>
